<?xml version="1.0" encoding="iso-8859-1"?>
<!-- Generator: Adobe Illustrator 19.0.0, SVG Export Plug-In . SVG Version: 6.00 Build 0)  -->
<svg version="1.1" id="Layer_1" xmlns="http://www.w3.org/2000/svg" xmlns:xlink="http://www.w3.org/1999/xlink" x="0px" y="0px"
	 viewBox="0 0 512 512" style="enable-background:new 0 0 512 512;" xml:space="preserve">
<circle style="fill:#71E2EF;" cx="256" cy="256" r="256"/>
<path style="fill:#38C6D9;" d="M256,44.384l5.172,192.078L134.787,419.899l87.424,89.879C233.269,511.236,244.545,512,256,512
	c127.397,0,233.043-93.063,252.702-214.914L256,44.384z"/>
<rect x="226.159" y="139.05" style="fill:#FFEDB5;" width="59.67" height="113.604"/>
<rect x="255.431" y="139.05" style="fill:#FEE187;" width="30.41" height="113.604"/>
<polygon style="fill:#FFEDB5;" points="134.787,419.899 377.211,419.899 377.211,257.812 256,209.327 134.787,257.812 "/>
<polygon style="fill:#FEE187;" points="377.211,257.812 256,209.327 255.426,209.556 255.426,419.899 377.211,419.899 "/>
<polygon style="fill:#366695;" points="256,190.305 126.707,242.023 126.707,262.592 256,210.875 385.293,262.592 385.293,242.023 
	"/>
<polygon style="fill:#273B7A;" points="256,190.305 255.426,190.535 255.426,211.104 256,210.875 385.293,262.592 385.293,242.023 
	"/>
<polygon style="fill:#366695;" points="256,44.384 304.485,148.152 207.515,148.152 "/>
<polygon style="fill:#273B7A;" points="256,44.384 255.426,45.613 255.426,148.152 304.485,148.152 "/>
<polygon style="fill:#366695;" points="264.183,270.822 264.183,254.454 255.426,254.454 247.815,254.454 247.815,270.822 
	231.448,270.822 231.448,287.191 247.815,287.191 247.815,336.294 255.426,336.294 264.183,336.294 264.183,287.191 
	280.552,287.191 280.552,270.822 "/>
<polygon style="fill:#273B7A;" points="264.183,270.822 264.183,254.454 255.426,254.454 255.426,336.294 264.183,336.294 
	264.183,287.191 280.552,287.191 280.552,270.822 "/>
<g>
	<path style="fill:#FEE187;" d="M176.497,413.46h-26.502v-92.753c0-7.318,5.932-13.25,13.25-13.25l0,0
		c7.318,0,13.25,5.932,13.25,13.25v92.753H176.497z"/>
	<path style="fill:#FEE187;" d="M214.642,413.46H188.14v-92.753c0-7.318,5.932-13.25,13.25-13.25l0,0
		c7.318,0,13.25,5.932,13.25,13.25v92.753H214.642z"/>
</g>
<g>
	<path style="fill:#FFC61B;" d="M323.858,413.46h-26.502v-92.753c0-7.318,5.932-13.25,13.25-13.25l0,0
		c7.318,0,13.25,5.932,13.25,13.25v92.753H323.858z"/>
	<path style="fill:#FFC61B;" d="M362.005,413.46h-26.502v-92.753c0-7.318,5.932-13.25,13.25-13.25l0,0
		c7.318,0,13.25,5.932,13.25,13.25v92.753H362.005z"/>
</g>
<g>
</g>
<g>
</g>
<g>
</g>
<g>
</g>
<g>
</g>
<g>
</g>
<g>
</g>
<g>
</g>
<g>
</g>
<g>
</g>
<g>
</g>
<g>
</g>
<g>
</g>
<g>
</g>
<g>
</g>
</svg>
